<svg xmlns="http://www.w3.org/2000/svg" viewBox="-4 -7.12 280.31 92.67"><path d="M36.3 1.0L34.7 1.0L9.1-34.6L9.1-2.2L13.7-1.2L13.7 0L2.3 0L2.3-1.2L7.0-2.2L7.0-37.8L2.3-38.8L2.3-40L12.8-40L34.2-10.6L34.2-37.8L29.6-38.8L29.6-40L41.0-40L41.0-38.8L36.3-37.8L36.3 1.0ZM57.7-28.1Q61.5-28.1 64.6-26.2Q67.8-24.4 69.6-21.1Q71.3-17.8 71.3-13.8L71.3-13.8Q71.3-9.7 69.6-6.4Q67.8-3.2 64.6-1.3Q61.5 0.5 57.7 0.5L57.7 0.5Q53.8 0.5 50.7-1.3Q47.5-3.2 45.8-6.4Q44-9.7 44-13.8L44-13.8Q44-17.8 45.8-21.1Q47.5-24.4 50.7-26.2Q53.8-28.1 57.7-28.1L57.7-28.1ZM49.5-13.8Q49.5-8.2 51.7-5.0Q53.8-1.8 57.6-1.8L57.6-1.8Q61.5-1.8 63.6-5.0Q65.8-8.2 65.8-13.8L65.8-13.8Q65.8-19.4 63.7-22.5Q61.5-25.7 57.7-25.7L57.7-25.7Q53.8-25.7 51.7-22.5Q49.5-19.4 49.5-13.8L49.5-13.8ZM91.1-28.1Q92.5-28.1 93.4-27.1Q94.4-26.2 94.4-24.8L94.4-24.8Q94.4-23.6 93.5-22.7Q92.7-21.9 91.4-21.9L91.4-21.9Q90.1-21.9 89.4-22.9L89.4-22.9Q88.9-23.4 88.6-23.6Q88.3-23.8 87.8-23.8L87.8-23.8Q87.2-23.8 86.7-23.6Q86.2-23.3 85.7-22.5L85.7-22.5Q84.8-21.4 84.6-20.9Q84.3-20.5 84.2-20L84.2-20L84.2-1.8L89.4-1.0L89.4 0L75.3 0L75.3-1.0L79.3-1.8L79.3-23.4L75.4-24.9L75.4-25.6L83.5-28.1L84-28.1L84-22.4Q85.8-25.2 87.7-26.6Q89.5-28.1 91.1-28.1L91.1-28.1ZM106.0 0.5Q103.5 0.5 101.9-0.9L101.9-0.9Q101.0-1.8 100.6-3.1Q100.2-4.5 100.2-6.9L100.2-6.9L100.2-25.7L96.8-25.7L96.7-26.5L104.2-34.3L105.1-34.2L105.1-27.5L112.6-27.5L112.2-25.7L105.1-25.7L105.1-7.3Q105.1-5.5 105.2-4.6Q105.4-3.8 105.6-3.4L105.6-3.4Q106.4-1.9 108.2-1.9L108.2-1.9Q109.2-1.9 110.3-2.5Q111.4-3.1 112.2-4.1L112.2-4.1L113.0-3.4Q111.8-1.6 109.9-0.5Q108.1 0.5 106.0 0.5L106.0 0.5ZM140.6-1.8L144.5-1.0L144.5 0L131.7 0L131.7-1.0L135.6-1.8L135.6-17.0Q135.6-19.3 135.5-20.6Q135.4-22.0 135.0-22.8L135.0-22.8Q134.0-25.2 131.0-25.2L131.0-25.2Q128.8-25.2 126.9-24.3Q125.0-23.5 123.5-21.8L123.5-21.8L123.5-1.8L127.4-1.0L127.4 0L114.6 0L114.6-1.0L118.5-1.8L118.5-38.5L114.7-39.9L114.7-40.6L123.0-43.1L123.5-43.1L123.5-23.7Q125.9-25.8 128.6-26.9Q131.3-28.1 133.9-28.1L133.9-28.1Q135.9-28.1 137.6-27.2Q139.2-26.4 139.9-24.9L139.9-24.9Q140.3-24.1 140.4-22.7Q140.6-21.4 140.6-17.6L140.6-17.6L140.6-1.8ZM155.6 11.2L160.7 12L160.7 13.0L146.8 13.0L146.8 12L150.6 11.2L150.6-23.4L146.9-24.8L146.9-25.6L154.9-28.1L155.4-28.1L155.4-23.5L155.6-23.5Q157.1-25.8 159.4-26.9Q161.7-28.1 164.1-28.1L164.1-28.1Q167.3-28.1 169.8-26.3Q172.3-24.5 173.7-21.3Q175.1-18.1 175.1-14.2L175.1-14.2Q175.1-9.9 173.2-6.5Q171.4-3.2 168.2-1.4Q164.9 0.5 160.6 0.5L160.6 0.5Q157.9 0.5 155.6-0.3L155.6-0.3L155.6 11.2ZM160.8-1.0Q163.4-1.0 165.5-2.6Q167.5-4.2 168.6-7.0Q169.7-9.8 169.7-13.4L169.7-13.4Q169.7-18.6 167.5-21.6Q165.3-24.7 161.5-24.7L161.5-24.7Q159.9-24.7 158.2-23.8Q156.5-22.9 155.8-21.7L155.8-21.7L155.8-6.1Q155.8-3.9 157.3-2.5Q158.7-1.0 160.8-1.0L160.8-1.0ZM193.5-28.1Q197.4-28.1 200.5-26.2Q203.6-24.4 205.4-21.1Q207.2-17.8 207.2-13.8L207.2-13.8Q207.2-9.7 205.4-6.4Q203.6-3.2 200.5-1.3Q197.4 0.5 193.5 0.5L193.5 0.5Q189.7 0.5 186.5-1.3Q183.4-3.2 181.6-6.4Q179.8-9.7 179.8-13.8L179.8-13.8Q179.8-17.8 181.6-21.1Q183.4-24.4 186.5-26.2Q189.7-28.1 193.5-28.1L193.5-28.1ZM185.4-13.8Q185.4-8.2 187.5-5.0Q189.7-1.8 193.5-1.8L193.5-1.8Q197.3-1.8 199.5-5.0Q201.7-8.2 201.7-13.8L201.7-13.8Q201.7-19.4 199.5-22.5Q197.4-25.7 193.5-25.7L193.5-25.7Q189.7-25.7 187.5-22.5Q185.4-19.4 185.4-13.8L185.4-13.8ZM214.2-37.1Q214.2-38.6 215.1-39.6Q216.0-40.5 217.5-40.5L217.5-40.5Q219.0-40.5 219.9-39.6Q220.9-38.6 220.9-37.1L220.9-37.1Q220.9-35.7 219.9-34.8Q219.0-33.8 217.5-33.8L217.5-33.8Q216.0-33.8 215.1-34.8Q214.2-35.7 214.2-37.1L214.2-37.1ZM223.9-1.0L223.9 0L211.1 0L211.1-1.0L215.1-1.8L215.1-23.4L211.2-24.8L211.2-25.6L219.5-28.1L220.0-28.1L220.0-1.8L223.9-1.0ZM251.8-1.8L255.7-1.0L255.7 0L243.0 0L243.0-1.0L246.9-1.8L246.9-17.0Q246.9-19.3 246.8-20.6Q246.6-22.0 246.3-22.8L246.3-22.8Q245.3-25.2 242.2-25.2L242.2-25.2Q240.4-25.2 238.6-24.4Q236.9-23.5 235.6-22.0L235.6-22.0L235.6-1.8L239.5-1.0L239.5 0L226.7 0L226.7-1.0L230.6-1.8L230.6-23.4L226.8-24.8L226.8-25.5L234.9-28.1L235.4-28.1L235.4-23.6Q237.6-25.8 240.1-26.9Q242.6-28.1 245.1-28.1L245.1-28.1Q247.2-28.1 248.8-27.2Q250.4-26.4 251.2-24.9L251.2-24.9Q251.6-24.1 251.7-22.7Q251.8-21.4 251.8-17.6L251.8-17.6L251.8-1.8ZM267.6 0.5Q265.1 0.5 263.5-0.9L263.5-0.9Q262.6-1.8 262.2-3.1Q261.8-4.5 261.8-6.9L261.8-6.9L261.8-25.7L258.4-25.7L258.3-26.5L265.8-34.3L266.8-34.2L266.8-27.5L274.2-27.5L273.8-25.7L266.8-25.7L266.8-7.3Q266.8-5.5 266.9-4.6Q267.0-3.8 267.2-3.4L267.2-3.4Q268.1-1.9 269.8-1.9L269.8-1.9Q270.9-1.9 271.9-2.5Q273.0-3.1 273.8-4.1L273.8-4.1L274.6-3.4Q273.5-1.6 271.6-0.5Q269.7 0.5 267.6 0.5L267.6 0.5Z" transform="translate(-2.34 40)" fill="#0f2438"/><rect x="0" y="56.99" width="272.31" height="1.6" fill="#1a4f86"/><path d="M1.1-7.0L1.1-7.0Q1.1-8.5 1.6-9.8Q2.2-11.1 3.2-12.1Q4.2-13.1 5.5-13.7Q6.8-14.3 8.3-14.3L8.3-14.3Q9.7-14.3 11.1-13.7Q12.4-13.1 13.4-12.1Q14.4-11.1 14.9-9.8Q15.5-8.5 15.5-7.0L15.5-7.0Q15.5-5.5 14.9-4.2Q14.4-2.9 13.4-1.9Q12.4-0.9 11.1-0.4Q9.7 0.2 8.3 0.2L8.3 0.2Q6.8 0.2 5.5-0.4Q4.2-0.9 3.2-1.9Q2.2-2.9 1.6-4.2Q1.1-5.5 1.1-7.0ZM3.4-7.0L3.4-7.0Q3.4-6.0 3.8-5.1Q4.1-4.2 4.8-3.5Q5.5-2.8 6.4-2.4Q7.3-2.0 8.3-2.0L8.3-2.0Q9.3-2.0 10.2-2.4Q11.1-2.8 11.8-3.5Q12.4-4.2 12.8-5.1Q13.2-6.0 13.2-7.0L13.2-7.0Q13.2-8.1 12.8-9.0Q12.4-9.9 11.7-10.6Q11.1-11.3 10.2-11.7Q9.3-12.1 8.3-12.1L8.3-12.1Q7.2-12.1 6.4-11.7Q5.5-11.3 4.8-10.6Q4.1-9.9 3.8-9.0Q3.4-8.1 3.4-7.0ZM26.3-14.1L30.2-14.1Q31.4-14.1 32.4-13.8Q33.3-13.5 34.0-12.9Q34.7-12.3 35.1-11.5Q35.4-10.7 35.4-9.6L35.4-9.6Q35.4-8.7 35.2-7.9Q34.9-7.1 34.4-6.4Q33.8-5.7 32.9-5.3Q31.9-4.9 30.6-4.9L30.6-4.9L28.5-4.9L28.5 0L26.3 0L26.3-14.1ZM28.5-7.1L30.5-7.1Q31.3-7.1 31.8-7.3Q32.3-7.6 32.6-7.9Q32.9-8.3 33.0-8.7Q33.1-9.1 33.1-9.5L33.1-9.5Q33.1-9.8 33.0-10.3Q32.9-10.7 32.6-11.1Q32.3-11.4 31.8-11.7Q31.3-11.9 30.6-11.9L30.6-11.9L28.5-11.9L28.5-7.1ZM30.3-5.7L33.0-5.7L36.6 0L34.0 0L30.3-5.7ZM45.7-11.9L45.7-14.1L55.2-14.1L55.2-11.9L51.5-11.9L51.5 0L49.3 0L49.3-11.9L45.7-11.9ZM75.0-14.1L77.2-14.1L77.2 0L75.0 0L75.0-6.0L68.1-6.0L68.1 0L65.8 0L65.8-14.1L68.1-14.1L68.1-8.2L75.0-8.2L75.0-14.1ZM88.0-7.0L88.0-7.0Q88.0-8.5 88.6-9.8Q89.1-11.1 90.1-12.1Q91.1-13.1 92.4-13.7Q93.7-14.3 95.2-14.3L95.2-14.3Q96.7-14.3 98.0-13.7Q99.3-13.1 100.3-12.1Q101.3-11.1 101.9-9.8Q102.4-8.5 102.4-7.0L102.4-7.0Q102.4-5.5 101.9-4.2Q101.3-2.9 100.3-1.9Q99.3-0.9 98.0-0.4Q96.7 0.2 95.2 0.2L95.2 0.2Q93.7 0.2 92.4-0.4Q91.1-0.9 90.1-1.9Q89.1-2.9 88.6-4.2Q88.0-5.5 88.0-7.0ZM90.3-7.0L90.3-7.0Q90.3-6.0 90.7-5.1Q91.1-4.2 91.8-3.5Q92.4-2.8 93.3-2.4Q94.2-2.0 95.3-2.0L95.3-2.0Q96.3-2.0 97.2-2.4Q98.0-2.8 98.7-3.5Q99.4-4.2 99.7-5.1Q100.1-6.0 100.1-7.0L100.1-7.0Q100.1-8.1 99.7-9.0Q99.3-9.9 98.7-10.6Q98.0-11.3 97.1-11.7Q96.2-12.1 95.2-12.1L95.2-12.1Q94.2-12.1 93.3-11.7Q92.4-11.3 91.7-10.6Q91.1-9.9 90.7-9.0Q90.3-8.1 90.3-7.0ZM113.2-14.1L117.2-14.1Q118.8-14.1 119.9-13.6Q121.1-13.0 121.7-12.0Q122.3-11.0 122.3-9.6L122.3-9.6Q122.3-8.7 122.0-7.9Q121.8-7.1 121.2-6.4Q120.7-5.7 119.8-5.3Q118.8-4.9 117.5-4.9L117.5-4.9L115.5-4.9L115.5 0L113.2 0L113.2-14.1ZM115.5-7.1L117.5-7.1Q118.2-7.1 118.7-7.3Q119.2-7.6 119.5-8.0Q119.8-8.3 119.9-8.8Q120.1-9.2 120.1-9.5L120.1-9.5Q120.1-9.9 119.9-10.3Q119.8-10.7 119.6-11.1Q119.3-11.4 118.8-11.7Q118.3-11.9 117.6-11.9L117.6-11.9L115.5-11.9L115.5-7.1ZM132.8 0L132.8-14.1L142.1-14.1L142.1-11.9L135.1-11.9L135.1-8.2L141.4-8.2L141.4-6.0L135.1-6.0L135.1-2.2L142.4-2.2L142.4 0L132.8 0ZM158.0 0L153.3 0L153.3-14.1L157.3-14.1Q159.4-14.1 160.9-13.5Q162.3-12.8 163.3-11.8Q164.2-10.7 164.6-9.4Q165.0-8.2 165.0-6.9L165.0-6.9Q165.0-5.3 164.4-4.0Q163.9-2.8 162.9-1.9Q161.9-0.9 160.7-0.5Q159.4 0 158.0 0L158.0 0ZM155.5-12.0L155.5-2.2L157.6-2.2Q158.7-2.2 159.6-2.5Q160.5-2.8 161.2-3.4Q161.9-4.0 162.3-4.9Q162.7-5.9 162.7-7.0L162.7-7.0Q162.7-8.3 162.2-9.3Q161.8-10.2 161.1-10.8Q160.4-11.4 159.6-11.7Q158.7-12.0 157.9-12.0L157.9-12.0L155.5-12.0ZM175.8 0L175.8-14.1L178.0-14.1L178.0 0L175.8 0ZM199.2-3.1L200.1-1.1Q199.8-0.9 199.2-0.6Q198.6-0.3 197.7-0.0Q196.9 0.2 195.9 0.2L195.9 0.2Q194.2 0.1 192.9-0.4Q191.6-1.0 190.7-2.0Q189.8-3.0 189.3-4.2Q188.8-5.5 188.8-6.9L188.8-6.9Q188.8-8.5 189.3-9.9Q189.8-11.2 190.7-12.2Q191.6-13.2 192.9-13.7Q194.2-14.3 195.7-14.3L195.7-14.3Q197.0-14.3 198.1-13.9Q199.2-13.5 199.9-13.1L199.9-13.1L199.0-11.0Q198.4-11.4 197.6-11.7Q196.8-12.1 195.8-12.1L195.8-12.1Q194.9-12.1 194.0-11.7Q193.2-11.3 192.5-10.6Q191.9-10.0 191.5-9.0Q191.1-8.1 191.1-7.1L191.1-7.1Q191.1-6.0 191.5-5.0Q191.8-4.1 192.4-3.4Q193.1-2.8 193.9-2.4Q194.8-2.0 195.9-2.0L195.9-2.0Q197.0-2.0 197.8-2.4Q198.7-2.7 199.2-3.1L199.2-3.1ZM219.1-13.0L218.3-11.2Q217.5-11.6 216.7-11.9Q215.8-12.2 215.0-12.2L215.0-12.2Q214.0-12.2 213.4-11.7Q212.8-11.3 212.8-10.4L212.8-10.4Q212.8-9.9 213.2-9.4Q213.6-9.0 214.3-8.7Q214.9-8.3 215.7-8.1L215.7-8.1Q216.3-7.8 216.9-7.5Q217.6-7.2 218.1-6.7Q218.6-6.3 218.9-5.6Q219.1-4.9 219.1-3.9L219.1-3.9Q219.1-2.8 218.6-1.9Q218.0-0.9 217.0-0.4Q216.0 0.2 214.5 0.2L214.5 0.2Q213.6 0.2 212.7-0.0Q211.9-0.2 211.1-0.6Q210.4-0.9 209.7-1.3L209.7-1.3L210.7-3.1Q211.2-2.8 211.8-2.5Q212.4-2.2 213.0-2.0Q213.7-1.8 214.2-1.8L214.2-1.8Q214.8-1.8 215.4-2.0Q216.0-2.2 216.4-2.7Q216.8-3.1 216.8-3.9L216.8-3.9Q216.8-4.5 216.5-4.9Q216.1-5.3 215.6-5.6Q215.0-5.9 214.4-6.2L214.4-6.2Q213.7-6.5 213.0-6.8Q212.3-7.1 211.8-7.5Q211.2-8.0 210.8-8.6Q210.4-9.3 210.4-10.3L210.4-10.3Q210.4-11.4 211.0-12.3Q211.5-13.1 212.5-13.6Q213.4-14.1 214.7-14.2L214.7-14.2Q216.2-14.2 217.2-13.8Q218.3-13.5 219.1-13.0L219.1-13.0Z" transform="translate(26.05 81.39)" fill="#1a4f86"/></svg>