<svg xmlns="http://www.w3.org/2000/svg" viewBox="0 0 64 64" role="img" aria-label="International calling icon">
<defs>
  <linearGradient id="g" x1="8" y1="8" x2="56" y2="56" gradientUnits="userSpaceOnUse">
    <stop stop-color="#39D7FF"/>
    <stop offset="1" stop-color="#1277FF"/>
  </linearGradient>
  <filter id="glow" x="-60%" y="-60%" width="220%" height="220%">
    <feGaussianBlur stdDeviation="2.2" result="b"/>
    <feMerge><feMergeNode in="b"/><feMergeNode in="SourceGraphic"/></feMerge>
  </filter>
</defs>
<rect x="2" y="2" width="60" height="60" rx="14" fill="#061A33"/>
<rect x="2.5" y="2.5" width="59" height="59" rx="13.5" fill="none" stroke="#1E86FF" opacity=".34"/>
<g fill="none" stroke="url(#g)" stroke-width="3.1" stroke-linecap="round" stroke-linejoin="round" filter="url(#glow)"><path d="M19 41c-4-3-7-8-7-14 0-10 8-18 18-18 8 0 15 5 17 12"/><path d="M26 49c3 2 6 3 10 3 10 0 18-8 18-18 0-3-1-6-2-9"/><path d="M42 16l5 5-6 4M22 48l-5-5 6-4"/><path d="M25 21l4 7-4 3c2 4 5 7 9 9l3-4 7 4"/></g></svg>