<svg xmlns="http://www.w3.org/2000/svg" viewBox="0 0 1000 700" preserveAspectRatio="xMidYMid slice" role="img" aria-label="Geotab GO telematics device">
  <defs>
    <linearGradient id="bg" x1="0" y1="0" x2="1" y2="1">
      <stop offset="0" stop-color="#0a1929"/>
      <stop offset="1" stop-color="#071321"/>
    </linearGradient>
    <radialGradient id="glow" cx="32%" cy="40%" r="60%">
      <stop offset="0" stop-color="#7be3ff" stop-opacity="0.18"/>
      <stop offset="1" stop-color="#7be3ff" stop-opacity="0"/>
    </radialGradient>
    <linearGradient id="label" x1="0" y1="0" x2="1" y2="0">
      <stop offset="0" stop-color="#0a4f8a"/>
      <stop offset="1" stop-color="#0369a1"/>
    </linearGradient>
    <linearGradient id="device" x1="0" y1="0" x2="0" y2="1">
      <stop offset="0" stop-color="#3a4654"/>
      <stop offset="0.45" stop-color="#1f2a37"/>
      <stop offset="1" stop-color="#0d141d"/>
    </linearGradient>
    <linearGradient id="deviceHL" x1="0" y1="0" x2="0" y2="1">
      <stop offset="0" stop-color="#5a6878" stop-opacity="0.85"/>
      <stop offset="1" stop-color="#5a6878" stop-opacity="0"/>
    </linearGradient>
    <filter id="noise" x="0" y="0" width="100%" height="100%">
      <feTurbulence baseFrequency="0.9" numOctaves="3" stitchTiles="stitch"/>
      <feColorMatrix values="0 0 0 0 0  0 0 0 0 0  0 0 0 0 0  0 0 0 .42 0"/>
    </filter>
    <filter id="shadow" x="-20%" y="-20%" width="140%" height="140%">
      <feGaussianBlur in="SourceAlpha" stdDeviation="14"/>
      <feOffset dx="0" dy="22"/>
      <feComponentTransfer><feFuncA type="linear" slope="0.55"/></feComponentTransfer>
      <feMerge><feMergeNode/><feMergeNode in="SourceGraphic"/></feMerge>
    </filter>
  </defs>

  <!-- background -->
  <rect width="1000" height="700" fill="url(#bg)"/>
  <rect width="1000" height="700" fill="url(#glow)"/>
  <rect width="1000" height="700" filter="url(#noise)" opacity="0.55" style="mix-blend-mode:overlay"/>

  <!-- grid -->
  <g opacity="0.08" stroke="#7be3ff" stroke-width="1">
    <line x1="0" y1="100" x2="1000" y2="100"/>
    <line x1="0" y1="200" x2="1000" y2="200"/>
    <line x1="0" y1="300" x2="1000" y2="300"/>
    <line x1="0" y1="400" x2="1000" y2="400"/>
    <line x1="0" y1="500" x2="1000" y2="500"/>
    <line x1="0" y1="600" x2="1000" y2="600"/>
    <line x1="100" y1="0" x2="100" y2="700"/>
    <line x1="200" y1="0" x2="200" y2="700"/>
    <line x1="300" y1="0" x2="300" y2="700"/>
    <line x1="400" y1="0" x2="400" y2="700"/>
    <line x1="500" y1="0" x2="500" y2="700"/>
    <line x1="600" y1="0" x2="600" y2="700"/>
    <line x1="700" y1="0" x2="700" y2="700"/>
    <line x1="800" y1="0" x2="800" y2="700"/>
    <line x1="900" y1="0" x2="900" y2="700"/>
  </g>

  <!-- crosshair frame -->
  <g stroke="#7be3ff" stroke-width="2" fill="none" opacity="0.7">
    <path d="M40 40 L40 70 M40 40 L70 40"/>
    <path d="M960 40 L960 70 M960 40 L930 40"/>
    <path d="M40 660 L40 630 M40 660 L70 660"/>
    <path d="M960 660 L960 630 M960 660 L930 660"/>
  </g>

  <!-- top corner monospaced telemetry -->
  <g font-family="JetBrains Mono, ui-monospace, monospace" fill="#7be3ff" font-size="13" letter-spacing="2" opacity="0.85">
    <text x="60" y="78">GEOTAB · GO9</text>
  </g>
  <g font-family="JetBrains Mono, ui-monospace, monospace" fill="rgba(255,255,255,0.45)" font-size="13" letter-spacing="2" text-anchor="end">
    <text x="940" y="78">SKU · GO9-OBD-II</text>
  </g>
  <g font-family="JetBrains Mono, ui-monospace, monospace" fill="#18b883" font-size="13" letter-spacing="2.5" opacity="0.95">
    <text x="60" y="640">STATUS · ON-LINE</text>
  </g>
  <g font-family="JetBrains Mono, ui-monospace, monospace" fill="rgba(255,255,255,0.45)" font-size="13" letter-spacing="2.5" text-anchor="end">
    <text x="940" y="640">UPDATE · 1 SEC</text>
  </g>

  <!-- live pulse dots -->
  <g>
    <circle cx="55" cy="635" r="4" fill="#18b883">
      <animate attributeName="r" values="4;7;4" dur="1.8s" repeatCount="indefinite"/>
      <animate attributeName="opacity" values="1;0.4;1" dur="1.8s" repeatCount="indefinite"/>
    </circle>
  </g>

  <!-- device shadow + body -->
  <g filter="url(#shadow)" transform="translate(265 165) rotate(-6)">
    <!-- device body -->
    <rect x="0" y="0" width="480" height="280" rx="22" ry="22" fill="url(#device)"/>
    <!-- highlight band -->
    <rect x="0" y="0" width="480" height="44" rx="22" ry="22" fill="url(#deviceHL)" opacity="0.4"/>
    <!-- bevel -->
    <rect x="2" y="2" width="476" height="276" rx="20" ry="20" fill="none" stroke="rgba(255,255,255,0.07)" stroke-width="1"/>

    <!-- blue label area -->
    <rect x="22" y="22" width="436" height="232" rx="14" ry="14" fill="url(#label)"/>
    <rect x="22" y="22" width="436" height="232" rx="14" ry="14" fill="none" stroke="rgba(255,255,255,0.18)" stroke-width="1"/>

    <!-- inner divider -->
    <line x1="22" y1="120" x2="458" y2="120" stroke="rgba(255,255,255,0.18)"/>

    <!-- pin icon top-left -->
    <g transform="translate(44 50)">
      <circle cx="22" cy="22" r="22" fill="#ffffff"/>
      <path d="M22 8 C28.6 8 34 13.4 34 20 C34 30 22 42 22 42 C22 42 10 30 10 20 C10 13.4 15.4 8 22 8 Z" fill="#0369a1"/>
      <circle cx="22" cy="20" r="5.5" fill="#ffffff"/>
    </g>

    <!-- GEOTAB wordmark -->
    <text x="108" y="80" font-family="Big Shoulders Display, Impact, sans-serif" font-size="46" font-weight="900" fill="#ffffff" letter-spacing="2">GEOTAB</text>

    <!-- signal/power indicators -->
    <g transform="translate(44 130)" fill="#ffffff">
      <!-- power -->
      <g transform="translate(0 0)">
        <path d="M11 0 V8 M5 4 A 8 8 0 1 0 17 4" fill="none" stroke="#ffffff" stroke-width="2.4" stroke-linecap="round"/>
      </g>
      <!-- signal bars -->
      <g transform="translate(40 -2)">
        <rect x="0" y="14" width="3.5" height="6" rx="1"/>
        <rect x="6" y="10" width="3.5" height="10" rx="1"/>
        <rect x="12" y="6" width="3.5" height="14" rx="1"/>
        <rect x="18" y="2" width="3.5" height="18" rx="1"/>
      </g>
      <!-- nav cursor -->
      <g transform="translate(82 0)">
        <path d="M3 0 L20 8 L11 11 L8 20 Z" fill="#ffffff"/>
      </g>
    </g>

    <!-- GO huge -->
    <text x="240" y="220" text-anchor="middle" font-family="Big Shoulders Display, Impact, sans-serif" font-size="138" font-weight="900" fill="#ffffff" letter-spacing="-2">GO</text>

    <!-- connector port -->
    <rect x="430" y="172" width="40" height="14" rx="3" fill="#000000" opacity="0.4"/>
  </g>

  <!-- live data side label -->
  <g transform="translate(720 540)" font-family="JetBrains Mono, ui-monospace, monospace" fill="rgba(255,255,255,0.6)" font-size="12" letter-spacing="2.5">
    <text x="0" y="0">LAT  25.6712°N</text>
    <text x="0" y="22">LON  100.3081°W</text>
    <text x="0" y="44">VEL  AVG 88 KM/H</text>
    <text x="0" y="66" fill="#18b883">SIG  STRONG</text>
  </g>

  <!-- subtle scan lines overlay -->
  <g opacity="0.18">
    <line x1="0" y1="0" x2="1000" y2="0" stroke="#ffffff" stroke-width="0.4" stroke-dasharray="2 6"/>
  </g>
</svg>
